# xmcd CD database file
#
# Track frame offsets:
#	150
#	19479
#	39860
#	56322
#	72903
#	92628
#	113441
#	133578
#	151890
#	169318
#	192827
#	213252
#
# Disc length: 3098 seconds
#
# Revision: 0
# Processed by: cddbd v1.5.2PL0 Copyright (c) Steve Scherf et al.
# Submitted via: CDex 1.51
#
DISCID=970c180c
DTITLE=Remiko and Ken Kawase - Song for my Father
DYEAR=2006
DGENRE=Jazz
TTITLE0=Black Orpheus
TTITLE1=Song for My Father
TTITLE2=As Time Goes By
TTITLE3=It's Only A Paper Moon
TTITLE4=Misty
TTITLE5=The Girl From Ipanema
TTITLE6=Stella by Starlight
TTITLE7=Moon River
TTITLE8=Blue Bossa
TTITLE9=Sophisticated Lady
TTITLE10=The Days Of Wine And Roses
TTITLE11=T and R
EXTD=YEAR: 2006
EXTT0=
EXTT1=
EXTT2=
EXTT3=
EXTT4=
EXTT5=
EXTT6=
EXTT7=
EXTT8=
EXTT9=
EXTT10=
EXTT11=
PLAYORDER=
